


<?xml version="1.0" encoding="UTF-8" standalone="no"?><!DOCTYPE svg PUBLIC "-//W3C//DTD SVG 1.1//EN" "http://www.w3.org/Graphics/SVG/1.1/DTD/svg11.dtd"><svg width="100%" height="100%" viewBox="0 0 71 38" version="1.1" xmlns="http://www.w3.org/2000/svg" xmlns:xlink="http://www.w3.org/1999/xlink" xml:space="preserve" xmlns:serif="http://www.serif.com/" style="fill-rule:evenodd;clip-rule:evenodd;stroke-linejoin:round;stroke-miterlimit:1.41421;"><path d="M39.475,2.64c0.7,-1.213 1.854,-2.098 3.206,-2.46c1.353,-0.363 2.795,-0.173 4.008,0.527c6.045,3.491 16.498,9.526 21.369,12.338c1.634,0.943 2.64,2.687 2.64,4.573c0,0.805 0,1.673 0,2.477c0,1.887 -1.006,3.63 -2.64,4.574c-4.949,2.857 -15.659,9.04 -21.655,12.502c-1.137,0.657 -2.489,0.835 -3.757,0.495c-1.268,-0.34 -2.35,-1.17 -3.006,-2.307c0,0 0,0 0,0c-1.367,-2.368 -0.556,-5.396 1.812,-6.763c2.569,-1.483 5.914,-3.414 8.948,-5.166c1.634,-0.943 2.641,-2.687 2.641,-4.573c0,-1.887 -1.007,-3.63 -2.641,-4.573c-0.029,-0.018 -0.059,-0.035 -0.089,-0.052c-2.525,-1.458 -5.755,-0.593 -7.213,1.933c-3.044,5.272 -8.018,13.887 -11.062,19.159c-0.7,1.213 -1.853,2.098 -3.206,2.46c-1.353,0.363 -2.794,0.173 -4.007,-0.527c-6.045,-3.49 -16.498,-9.525 -21.369,-12.338c-1.634,-0.943 -2.641,-2.686 -2.641,-4.573c0,-0.804 0,-1.673 0,-2.477c0,-1.887 1.007,-3.63 2.641,-4.573c4.948,-2.858 15.659,-9.041 21.655,-12.503c1.137,-0.657 2.488,-0.835 3.756,-0.495c1.269,0.34 2.35,1.17 3.006,2.307c0,0 0,0 0,0c0.657,1.137 0.835,2.489 0.495,3.757c-0.34,1.268 -1.17,2.349 -2.307,3.006c-2.568,1.483 -5.914,3.415 -8.948,5.166c-1.634,0.944 -2.64,2.687 -2.64,4.573c0,1.887 1.006,3.63 2.64,4.574c0.03,0.017 0.059,0.034 0.089,0.051c2.526,1.458 5.755,0.593 7.214,-1.933c3.043,-5.272 8.017,-13.887 11.061,-19.159Z" style="fill:#2274ff;"/></svg>