<?xml version="1.0" encoding="UTF-8"?>
<!DOCTYPE svg PUBLIC "-//W3C//DTD SVG 1.1//EN" "http://www.w3.org/Graphics/SVG/1.1/DTD/svg11.dtd">
<svg xmlns="http://www.w3.org/2000/svg" version="1.1" width="474px" height="366px" style="shape-rendering:geometricPrecision; text-rendering:geometricPrecision; image-rendering:optimizeQuality; fill-rule:evenodd; clip-rule:evenodd" xmlns:xlink="http://www.w3.org/1999/xlink">
<g><path style="opacity:0.055" fill="#32333a" d="M 329.5,100.5 C 329.81,103.713 329.477,106.713 328.5,109.5C 326.567,107.063 324.4,104.729 322,102.5C 321.63,99.6622 321.797,96.8289 322.5,94C 322.518,91.5897 321.851,89.423 320.5,87.5C 320.217,86.7109 319.717,86.0442 319,85.5C 318.501,89.4862 318.334,93.4862 318.5,97.5C 318.265,98.0967 317.765,98.4301 317,98.5C 310.33,94.4959 303.164,92.9959 295.5,94C 284.961,103.376 274.294,112.543 263.5,121.5C 260.833,122.167 260.833,122.833 263.5,123.5C 266.14,124.82 268.807,126.153 271.5,127.5C 272.5,128.167 273.5,128.833 274.5,129.5C 273.855,130.812 272.855,131.812 271.5,132.5C 267.451,129.95 263.284,127.617 259,125.5C 254.204,129.148 249.037,132.148 243.5,134.5C 242.761,134.631 242.094,134.464 241.5,134C 242.823,133.184 243.489,132.017 243.5,130.5C 245.474,127.518 247.474,124.518 249.5,121.5C 244.316,119.537 238.983,118.204 233.5,117.5C 235.265,116.539 237.265,116.205 239.5,116.5C 243.306,116.412 246.972,117.079 250.5,118.5C 260.595,99.8273 255.261,91.994 234.5,95C 232.667,100.028 230.167,100.528 227,96.5C 225.798,92.2071 226.965,88.7071 230.5,86C 226.259,84.5427 221.926,84.2093 217.5,85C 211.182,86.3303 204.849,87.497 198.5,88.5C 195.287,88.81 192.287,88.4767 189.5,87.5C 192.378,80.1988 190.045,75.3655 182.5,73C 176.5,71 170.5,71 164.5,73C 160.335,74.4831 158.835,77.3164 160,81.5C 161.012,84.2018 162.512,86.5351 164.5,88.5C 165.568,89.4345 166.901,89.7678 168.5,89.5C 168.737,88.209 168.404,87.209 167.5,86.5C 164.321,77.5164 167.655,73.6831 177.5,75C 178.761,78.2876 178.761,81.6209 177.5,85C 177.99,86.982 178.99,88.6487 180.5,90C 165.056,101.694 153.556,116.528 146,134.5C 127.823,176.404 128.156,218.071 147,259.5C 149.929,264.369 153.096,269.035 156.5,273.5C 155.448,275.256 153.781,275.923 151.5,275.5C 147.103,275.575 142.77,275.075 138.5,274C 128.31,262.794 120.81,249.961 116,235.5C 108.544,237.542 101.378,240.375 94.5,244C 85.6287,249.588 85.2954,255.588 93.5,262C 96.0321,263.765 98.6987,265.265 101.5,266.5C 100.791,267.404 99.791,267.737 98.5,267.5C 85.9847,265.829 74.4847,261.495 64,254.5C 63.6732,248.323 66.1732,243.489 71.5,240C 74.3388,238.08 77.3388,236.413 80.5,235C 91.5454,230.858 102.879,227.858 114.5,226C 108.346,188.756 113.846,153.256 131,119.5C 135.442,111.765 140.942,104.932 147.5,99C 144.692,98.9814 142.359,97.9814 140.5,96C 146.701,92.9865 151.368,88.3198 154.5,82C 151.497,80.8338 148.83,79.1672 146.5,77C 153.712,72.7945 160.045,67.4611 165.5,61C 167.67,59.4138 170.004,58.0804 172.5,57C 169.38,54.5923 168.047,51.4257 168.5,47.5C 172.131,48.412 175.797,48.5787 179.5,48C 215.586,32.7991 252.086,31.6324 289,44.5C 293.082,41.8931 296.748,42.2264 300,45.5C 301.959,49.6689 303.459,54.0022 304.5,58.5C 318.728,69.0465 327.062,83.0465 329.5,100.5 Z"/></g>
<g><path style="opacity:0.055" fill="#95979a" d="M 167.5,86.5 C 168.404,87.209 168.737,88.209 168.5,89.5C 166.901,89.7678 165.568,89.4345 164.5,88.5C 166.179,88.7148 167.179,88.0481 167.5,86.5 Z"/></g>
<g><path style="opacity:0.055" fill="#aeafb2" d="M 189.5,87.5 C 192.287,88.4767 195.287,88.81 198.5,88.5C 195.313,89.8056 191.98,89.8056 188.5,88.5C 188.624,87.8933 188.957,87.56 189.5,87.5 Z"/></g>
<g><path style="opacity:0.055" fill="#797a7f" d="M 320.5,87.5 C 319.833,90.8333 319.167,94.1667 318.5,97.5C 318.334,93.4862 318.501,89.4862 319,85.5C 319.717,86.0442 320.217,86.7109 320.5,87.5 Z"/></g>
<g><path style="opacity:0.055" fill="#44454c" d="M 244.5,98.5 C 242.5,97.8333 240.5,97.1667 238.5,96.5C 243.228,94.1208 247.728,94.7874 252,98.5C 254.251,102.666 253.417,106.166 249.5,109C 240.004,112.441 235.337,109.274 235.5,99.5C 239.186,101.682 242.852,101.849 246.5,100C 245.956,99.2828 245.289,98.7828 244.5,98.5 Z"/></g>
<g><path style="opacity:0.055" fill="#a7a8ab" d="M 238.5,96.5 C 240.5,97.1667 242.5,97.8333 244.5,98.5C 241.813,98.6641 239.146,98.4974 236.5,98C 237.044,97.2828 237.711,96.7828 238.5,96.5 Z"/></g>
<g><path style="opacity:0.055" fill="#393b41" d="M 299.5,98.5 C 310.362,99.8475 319.528,104.514 327,112.5C 326.817,116.238 325.984,119.905 324.5,123.5C 322.983,124.911 321.649,124.744 320.5,123C 322.05,120.905 322.383,118.738 321.5,116.5C 320.914,116.709 320.414,117.043 320,117.5C 319.226,121.812 319.726,125.978 321.5,130C 320.847,133.32 318.847,135.32 315.5,136C 310.083,138.151 304.75,137.985 299.5,135.5C 298.544,132.707 299.378,130.373 302,128.5C 303.58,123.404 301.746,120.237 296.5,119C 294.926,118.301 293.593,118.635 292.5,120C 301.887,120.646 303.554,124.313 297.5,131C 286.614,129.395 283.447,123.562 288,113.5C 291.38,108.032 295.214,103.032 299.5,98.5 Z"/></g>
<g><path style="opacity:0.055" fill="#85868b" d="M 329.5,100.5 C 330.643,103.976 330.81,107.642 330,111.5C 329.283,110.956 328.783,110.289 328.5,109.5C 329.477,106.713 329.81,103.713 329.5,100.5 Z"/></g>
<g><path style="opacity:0.055" fill="#8b8c90" d="M 239.5,116.5 C 237.265,116.205 235.265,116.539 233.5,117.5C 230.393,117.649 227.393,117.149 224.5,116C 229.684,115.184 234.684,115.35 239.5,116.5 Z"/></g>
<g><path style="opacity:0.055" fill="#393b41" d="M 399.5,114.5 C 398.833,115.167 398.167,115.833 397.5,116.5C 378.879,117.458 360.879,121.291 343.5,128C 342.667,130.081 342.667,132.248 343.5,134.5C 364.801,135.821 384.134,142.488 401.5,154.5C 400.167,154.5 398.833,154.5 397.5,154.5C 383.076,146.581 367.743,141.247 351.5,138.5C 348.976,137.2 346.309,137.2 343.5,138.5C 343.624,139.107 343.957,139.44 344.5,139.5C 374.032,142.921 397.365,156.588 414.5,180.5C 414.5,181.833 413.833,182.5 412.5,182.5C 395.73,162.073 374.396,149.073 348.5,143.5C 347.081,142.549 345.415,142.216 343.5,142.5C 343.5,144.167 343.5,145.833 343.5,147.5C 343.172,151.816 341.839,155.816 339.5,159.5C 351.901,180.436 358.068,203.102 358,227.5C 370.936,229.86 383.436,233.693 395.5,239C 400.211,242.091 402.878,246.424 403.5,252C 402.73,254.069 401.397,255.735 399.5,257C 388.631,263.345 376.964,267.179 364.5,268.5C 362.585,268.784 360.919,268.451 359.5,267.5C 364.299,265.267 368.965,262.767 373.5,260C 378.934,255.026 378.601,250.359 372.5,246C 367.414,243.04 362.247,240.206 357,237.5C 353.828,250.347 347.661,261.513 338.5,271C 329.321,273.474 319.987,274.974 310.5,275.5C 309.833,275.5 309.5,275.167 309.5,274.5C 330.663,252.504 339.163,226.17 335,195.5C 333.16,183.148 329.994,171.148 325.5,159.5C 329.992,154.152 333.492,148.152 336,141.5C 337.711,135.19 337.878,128.857 336.5,122.5C 336.5,121.167 337.167,120.5 338.5,120.5C 339.476,121.815 340.476,123.148 341.5,124.5C 360.072,116.849 379.405,113.516 399.5,114.5 Z"/></g>
<g><path style="opacity:0.055" fill="#b8b9bb" d="M 399.5,114.5 C 400.922,114.709 402.255,115.209 403.5,116C 401.527,116.495 399.527,116.662 397.5,116.5C 398.167,115.833 398.833,115.167 399.5,114.5 Z"/></g>
<g><path style="opacity:0.055" fill="#818287" d="M 338.5,120.5 C 337.167,120.5 336.5,121.167 336.5,122.5C 332.096,114.613 332.762,113.946 338.5,120.5 Z"/></g>
<g><path style="opacity:0.055" fill="#939498" d="M 263.5,121.5 C 263.5,122.167 263.5,122.833 263.5,123.5C 260.833,122.833 260.833,122.167 263.5,121.5 Z"/></g>
<g><path style="opacity:0.055" fill="#afb0b2" d="M 271.5,127.5 C 272.978,127.238 274.311,127.571 275.5,128.5C 275.376,129.107 275.043,129.44 274.5,129.5C 273.5,128.833 272.5,128.167 271.5,127.5 Z"/></g>
<g><path style="opacity:0.055" fill="#7a7b80" d="M 243.5,130.5 C 243.489,132.017 242.823,133.184 241.5,134C 242.094,134.464 242.761,134.631 243.5,134.5C 241.956,135.914 240.289,136.247 238.5,135.5C 239.855,133.479 241.521,131.812 243.5,130.5 Z"/></g>
<g><path style="opacity:0.055" fill="#95969a" d="M 351.5,138.5 C 348.941,138.198 346.607,138.532 344.5,139.5C 343.957,139.44 343.624,139.107 343.5,138.5C 346.309,137.2 348.976,137.2 351.5,138.5 Z"/></g>
<g><path style="opacity:0.055" fill="#c9cacb" d="M 264.5,136.5 C 266.607,135.532 268.941,135.198 271.5,135.5C 271.802,138.059 271.468,140.393 270.5,142.5C 270.5,141.5 270.5,140.5 270.5,139.5C 268.784,139.629 267.117,139.962 265.5,140.5C 265.5,139.833 265.167,139.5 264.5,139.5C 266.369,138.835 268.369,138.169 270.5,137.5C 268.604,136.534 266.604,136.201 264.5,136.5 Z"/></g>
<g><path style="opacity:0.055" fill="#b5b6b8" d="M 348.5,143.5 C 347.167,143.5 345.833,143.5 344.5,143.5C 344.768,145.099 344.434,146.432 343.5,147.5C 343.5,145.833 343.5,144.167 343.5,142.5C 345.415,142.216 347.081,142.549 348.5,143.5 Z"/></g>
<g><path style="opacity:0.055" fill="#42444a" d="M 274.5,161.5 C 275.167,160.833 275.833,160.167 276.5,159.5C 290.406,159.322 302.073,154.322 311.5,144.5C 313.333,146.167 315.167,147.833 317,149.5C 317.667,150.5 317.667,151.5 317,152.5C 312.781,157.86 307.281,161.027 300.5,162C 291.774,164.061 283.107,163.894 274.5,161.5 Z"/></g>
<g><path style="opacity:0.055" fill="#57585e" d="M 264.5,136.5 C 266.604,136.201 268.604,136.534 270.5,137.5C 268.369,138.169 266.369,138.835 264.5,139.5C 247.602,141.244 231.935,146.577 217.5,155.5C 217.167,155.167 216.833,154.833 216.5,154.5C 227.039,146.068 239.039,140.568 252.5,138C 256.466,137.172 260.466,136.672 264.5,136.5 Z"/></g>
<g><path style="opacity:0.055" fill="#737479" d="M 397.5,154.5 C 398.833,154.5 400.167,154.5 401.5,154.5C 403.803,156.325 406.136,158.158 408.5,160C 408.167,160.167 407.833,160.333 407.5,160.5C 404.103,158.474 400.77,156.474 397.5,154.5 Z"/></g>
<g><path style="opacity:0.055" fill="#c1c2c4" d="M 199.5,156.5 C 198.833,156.5 198.5,156.833 198.5,157.5C 197.427,156.749 197.26,155.749 198,154.5C 198.717,155.044 199.217,155.711 199.5,156.5 Z"/></g>
<g><path style="opacity:0.055" fill="#303239" d="M 199.5,156.5 C 203.975,160.243 208.975,163.243 214.5,165.5C 215.518,164.807 216.518,164.141 217.5,163.5C 218.791,163.263 219.791,163.596 220.5,164.5C 219.909,165.151 219.243,165.818 218.5,166.5C 222.258,168.461 225.758,170.795 229,173.5C 231.273,168.606 234.273,164.273 238,160.5C 238.37,163.338 238.203,166.171 237.5,169C 237.454,170.728 237.954,172.228 239,173.5C 241.508,169.434 244.675,166.1 248.5,163.5C 249.833,163.5 250.5,164.167 250.5,165.5C 250.142,168.267 249.475,170.933 248.5,173.5C 247.566,174.568 247.232,175.901 247.5,177.5C 249.099,177.768 250.432,177.434 251.5,176.5C 264.964,174.756 278.297,172.256 291.5,169C 299.209,166.644 306.542,163.478 313.5,159.5C 315.371,159.141 316.871,158.141 318,156.5C 318.483,157.448 318.649,158.448 318.5,159.5C 313.915,169.677 309.582,180.01 305.5,190.5C 307.764,198.364 310.597,206.031 314,213.5C 315.423,216.926 315.423,220.26 314,223.5C 312.414,221.33 311.08,218.996 310,216.5C 303.627,210.458 296.96,204.792 290,199.5C 285.927,206.908 280.427,213.075 273.5,218C 254.833,228 236.167,238 217.5,248C 209.735,253.761 202.569,260.261 196,267.5C 192.556,261.175 189.89,254.508 188,247.5C 185.307,229.216 182.974,210.883 181,192.5C 179.269,181.067 175.769,170.234 170.5,160C 176.497,163.504 182.83,166.837 189.5,170C 193.305,171.38 197.138,172.547 201,173.5C 199.872,168.293 199.039,162.96 198.5,157.5C 198.5,156.833 198.833,156.5 199.5,156.5 Z"/></g>
<g><path style="opacity:0.055" fill="#7c7e82" d="M 318.5,159.5 C 318.649,158.448 318.483,157.448 318,156.5C 316.871,158.141 315.371,159.141 313.5,159.5C 315.127,157.37 316.96,155.37 319,153.5C 319.789,155.712 319.622,157.712 318.5,159.5 Z"/></g>
<g><path style="opacity:0.055" fill="#adaeb0" d="M 276.5,159.5 C 275.833,160.167 275.167,160.833 274.5,161.5C 273.244,161.539 272.244,161.039 271.5,160C 273.134,159.506 274.801,159.34 276.5,159.5 Z"/></g>
<g><path style="opacity:0.055" fill="#57595f" d="M 270.5,142.5 C 251.948,145.441 235.281,152.774 220.5,164.5C 219.791,163.596 218.791,163.263 217.5,163.5C 231.334,151.585 247.334,143.918 265.5,140.5C 267.117,139.962 268.784,139.629 270.5,139.5C 270.5,140.5 270.5,141.5 270.5,142.5 Z"/></g>
<g><path style="opacity:0.055" fill="#9b9c9f" d="M 250.5,165.5 C 250.5,164.167 249.833,163.5 248.5,163.5C 249.172,162.733 250.005,162.066 251,161.5C 251.765,163.066 251.598,164.399 250.5,165.5 Z"/></g>
<g><path style="opacity:0.055" fill="#909195" d="M 248.5,173.5 C 248.5,174.5 248.5,175.5 248.5,176.5C 249.5,176.5 250.5,176.5 251.5,176.5C 250.432,177.434 249.099,177.768 247.5,177.5C 247.232,175.901 247.566,174.568 248.5,173.5 Z"/></g>
<g><path style="opacity:0.055" fill="#6f7176" d="M 414.5,180.5 C 416.223,182.253 417.723,184.253 419,186.5C 419.788,188.165 420.122,189.831 420,191.5C 417.665,188.335 415.165,185.335 412.5,182.5C 413.833,182.5 414.5,181.833 414.5,180.5 Z"/></g>
<g><path style="opacity:0.055" fill="#bcbdbf" d="M 54.5,233.5 C 56.6282,232.371 58.9615,232.204 61.5,233C 60.9558,233.717 60.2891,234.217 59.5,234.5C 58.0813,233.549 56.4147,233.216 54.5,233.5 Z"/></g>
<g><path style="opacity:0.055" fill="#37393f" d="M 54.5,233.5 C 56.4147,233.216 58.0813,233.549 59.5,234.5C 53.9236,237.902 48.7569,241.902 44,246.5C 41.4961,251.646 42.3294,256.146 46.5,260C 62.5564,269.8 79.8898,276.466 98.5,280C 143.207,288.99 188.374,293.49 234,293.5C 274.423,293.486 314.59,290.319 354.5,284C 376.283,280.962 396.616,273.962 415.5,263C 428.927,250.642 426.927,241.476 409.5,235.5C 409.842,234.662 410.508,234.328 411.5,234.5C 424.911,235.789 436.077,241.455 445,251.5C 445.97,253.274 446.804,255.107 447.5,257C 445.27,261.236 442.27,264.903 438.5,268C 421.862,278.327 403.862,285.327 384.5,289C 296.262,306.141 207.595,308.808 118.5,297C 92.9292,293.357 67.9292,287.357 43.5,279C 32.7899,275.405 23.9566,269.239 17,260.5C 14.8102,255.972 15.1435,251.639 18,247.5C 28.3722,238.427 40.5389,233.76 54.5,233.5 Z"/></g>
<g><path style="opacity:0.055" fill="#abadaf" d="M 411.5,234.5 C 410.508,234.328 409.842,234.662 409.5,235.5C 408.078,235.291 406.745,234.791 405.5,234C 407.712,233.211 409.712,233.378 411.5,234.5 Z"/></g>
<g><path style="opacity:0.008" fill="#fefffe" d="M 473.5,269.5 C 473.5,270.167 473.5,270.833 473.5,271.5C 471.265,270.714 470.265,269.048 470.5,266.5C 470.667,265.5 470.833,264.5 471,263.5C 471.566,265.723 472.4,267.723 473.5,269.5 Z"/></g>
<g><path style="opacity:0.055" fill="#9b9c9f" d="M 101.5,266.5 C 103.179,266.892 104.846,267.392 106.5,268C 107.696,268.654 107.696,269.154 106.5,269.5C 103.689,268.92 101.023,268.254 98.5,267.5C 99.791,267.737 100.791,267.404 101.5,266.5 Z"/></g>
<g><path style="opacity:0.055" fill="#b2b3b5" d="M 359.5,267.5 C 360.919,268.451 362.585,268.784 364.5,268.5C 362.372,269.629 360.039,269.796 357.5,269C 358.044,268.283 358.711,267.783 359.5,267.5 Z"/></g>
<g><path style="opacity:0.055" fill="#e1e1e2" d="M 309.5,274.5 C 309.5,275.167 309.833,275.5 310.5,275.5C 310.44,276.043 310.107,276.376 309.5,276.5C 308.227,275.743 308.227,275.077 309.5,274.5 Z"/></g>
<g><path style="opacity:0.055" fill="#808186" d="M 156.5,273.5 C 157.627,274.122 158.627,274.955 159.5,276C 156.633,276.801 153.966,276.634 151.5,275.5C 153.781,275.923 155.448,275.256 156.5,273.5 Z"/></g>
</svg>
