<?xml version="1.0" encoding="UTF-8"?>
<!DOCTYPE svg PUBLIC "-//W3C//DTD SVG 1.1//EN" "http://www.w3.org/Graphics/SVG/1.1/DTD/svg11.dtd">
<svg xmlns="http://www.w3.org/2000/svg" version="1.1" width="474px" height="366px" style="shape-rendering:geometricPrecision; text-rendering:geometricPrecision; image-rendering:optimizeQuality; fill-rule:evenodd; clip-rule:evenodd" xmlns:xlink="http://www.w3.org/1999/xlink">
<g><path style="opacity:1" fill="#f0f1f0" d="M 226.5,35.5 C 248.021,33.9603 268.854,36.9603 289,44.5C 295.222,41.1075 299.555,42.7742 302,49.5C 302.679,52.5499 303.512,55.5499 304.5,58.5C 322.152,71.8022 330.652,89.4689 330,111.5C 327.705,108.203 325.038,105.203 322,102.5C 321.63,99.6622 321.797,96.8289 322.5,94C 322.637,91.4441 321.804,89.2775 320,87.5C 319.667,90.8333 319.333,94.1667 319,97.5C 318.439,98.0219 317.772,98.3552 317,98.5C 310.33,94.4959 303.164,92.9959 295.5,94C 285,103.167 274.5,112.333 264,121.5C 263.911,123.113 264.745,124.28 266.5,125C 269.334,126.6 272.334,127.766 275.5,128.5C 274.687,129.814 273.687,130.981 272.5,132C 267.931,130.301 263.431,128.135 259,125.5C 253.131,130.184 246.631,133.851 239.5,136.5C 238.479,135.998 238.312,135.332 239,134.5C 243.448,130.89 246.948,126.557 249.5,121.5C 241.316,119.024 232.982,117.191 224.5,116C 233.355,115.001 242.021,115.834 250.5,118.5C 260.595,99.8273 255.261,91.994 234.5,95C 232.667,100.028 230.167,100.528 227,96.5C 225.798,92.2071 226.965,88.7071 230.5,86C 226.259,84.5427 221.926,84.2093 217.5,85C 209.556,86.8195 201.556,88.3195 193.5,89.5C 189.283,89.9137 188.116,88.5804 190,85.5C 191.351,79.1559 188.851,74.9892 182.5,73C 176.5,71 170.5,71 164.5,73C 158.821,76.0614 157.987,80.2281 162,85.5C 163.264,87.607 165.097,88.607 167.5,88.5C 163.476,78.0272 166.976,73.6939 178,75.5C 178.703,78.7125 178.536,81.8792 177.5,85C 177.99,86.982 178.99,88.6487 180.5,90C 165.056,101.694 153.556,116.528 146,134.5C 131.001,170.149 129.001,206.483 140,243.5C 144.335,255.677 150.835,266.511 159.5,276C 152.437,276.243 145.437,275.576 138.5,274C 128.31,262.794 120.81,249.961 116,235.5C 106.528,237.488 98.0278,241.488 90.5,247.5C 86.5303,253.146 87.5303,257.979 93.5,262C 97.4432,264.804 101.777,266.804 106.5,268C 92.2007,267.814 78.2007,263.48 64.5,255C 63.1703,251.632 63.6703,248.465 66,245.5C 72.1556,238.836 79.6556,234.336 88.5,232C 97.1316,229.741 105.798,227.741 114.5,226C 108.346,188.756 113.846,153.256 131,119.5C 135.442,111.765 140.942,104.932 147.5,99C 144.692,98.9814 142.359,97.9814 140.5,96C 146.701,92.9865 151.368,88.3198 154.5,82C 151.497,80.8338 148.83,79.1672 146.5,77C 153.712,72.7945 160.045,67.4611 165.5,61C 167.67,59.4138 170.004,58.0804 172.5,57C 169.38,54.5923 168.047,51.4257 168.5,47.5C 172.131,48.412 175.797,48.5787 179.5,48C 194.749,41.7731 210.415,37.6064 226.5,35.5 Z"/></g>
<g><path style="opacity:1" fill="#f0f1f0" d="M 242.5,94.5 C 247.166,94.5795 250.666,96.5795 253,100.5C 252.078,109.554 247.245,112.388 238.5,109C 232.019,101.102 233.352,98.6021 242.5,101.5C 244.067,101.523 245.4,101.023 246.5,100C 243.362,98.7556 240.028,98.089 236.5,98C 238.257,96.2505 240.257,95.0838 242.5,94.5 Z"/></g>
<g><path style="opacity:1" fill="#f0f1f0" d="M 299.5,98.5 C 310.362,99.8475 319.528,104.514 327,112.5C 326.817,116.238 325.984,119.905 324.5,123.5C 322.983,124.911 321.649,124.744 320.5,123C 322.05,120.905 322.383,118.738 321.5,116.5C 320.914,116.709 320.414,117.043 320,117.5C 319.226,121.812 319.726,125.978 321.5,130C 320.847,133.32 318.847,135.32 315.5,136C 310.083,138.151 304.75,137.985 299.5,135.5C 298.544,132.707 299.378,130.373 302,128.5C 303.58,123.404 301.746,120.237 296.5,119C 294.926,118.301 293.593,118.635 292.5,120C 301.887,120.646 303.554,124.313 297.5,131C 286.614,129.395 283.447,123.562 288,113.5C 291.38,108.032 295.214,103.032 299.5,98.5 Z"/></g>
<g><path style="opacity:1" fill="#f0f1f0" d="M 378.5,114.5 C 386.943,114.062 395.277,114.562 403.5,116C 382.813,116.671 362.813,120.671 343.5,128C 342.667,130.081 342.667,132.248 343.5,134.5C 367.908,136.243 389.575,144.743 408.5,160C 397.977,155.076 387.31,150.076 376.5,145C 366.215,140.76 355.548,138.76 344.5,139C 372.492,142.906 395.325,155.74 413,177.5C 416.019,181.539 418.519,185.872 420.5,190.5C 414.074,183.564 407.074,176.397 399.5,169C 383.963,154.566 365.629,146.066 344.5,143.5C 344.044,149.202 342.377,154.535 339.5,159.5C 351.901,180.436 358.068,203.102 358,227.5C 370.936,229.86 383.436,233.693 395.5,239C 401.304,242.762 403.637,247.929 402.5,254.5C 388.946,263.851 373.946,268.685 357.5,269C 362.833,266 368.167,263 373.5,260C 378.934,255.026 378.601,250.359 372.5,246C 367.414,243.04 362.247,240.206 357,237.5C 353.828,250.347 347.661,261.513 338.5,271C 328.489,273.727 318.489,275.227 308.5,275.5C 323.391,261.387 332.224,244.054 335,223.5C 337.287,201.344 334.121,180.011 325.5,159.5C 327.439,156.385 329.606,153.385 332,150.5C 338.409,139.043 339.076,127.376 334,115.5C 336.977,118.131 339.477,121.131 341.5,124.5C 353.574,119.734 365.907,116.401 378.5,114.5 Z"/></g>
<g><path style="opacity:1" fill="#f0f1f0" d="M 264.5,135.5 C 266.833,135.5 269.167,135.5 271.5,135.5C 271.768,138.119 271.435,140.619 270.5,143C 250.776,145.698 233.443,153.531 218.5,166.5C 222.258,168.461 225.758,170.795 229,173.5C 231.273,168.606 234.273,164.273 238,160.5C 238.37,163.338 238.203,166.171 237.5,169C 237.454,170.728 237.954,172.228 239,173.5C 241.667,168.167 245.667,164.167 251,161.5C 250.345,166.472 249.512,171.472 248.5,176.5C 263.014,175.081 277.347,172.581 291.5,169C 302.111,166.281 311.277,161.114 319,153.5C 319.611,157.682 318.944,161.682 317,165.5C 312.077,173.345 308.244,181.678 305.5,190.5C 307.764,198.364 310.597,206.031 314,213.5C 315.423,216.926 315.423,220.26 314,223.5C 312.414,221.33 311.08,218.996 310,216.5C 303.627,210.458 296.96,204.792 290,199.5C 285.927,206.908 280.427,213.075 273.5,218C 254.833,228 236.167,238 217.5,248C 209.735,253.761 202.569,260.261 196,267.5C 192.556,261.175 189.89,254.508 188,247.5C 185.307,229.216 182.974,210.883 181,192.5C 179.269,181.067 175.769,170.234 170.5,160C 176.497,163.504 182.83,166.837 189.5,170C 193.305,171.38 197.138,172.547 201,173.5C 199.529,167.271 198.529,160.938 198,154.5C 202.553,159.531 208.053,163.198 214.5,165.5C 229.289,152.772 246.289,144.272 265.5,140C 248.209,141.041 232.209,146.208 217.5,155.5C 216.479,154.998 216.312,154.332 217,153.5C 231.589,144.029 247.422,138.029 264.5,135.5 Z"/></g>
<g><path style="opacity:1" fill="#f0f1f0" d="M 310.5,144.5 C 313.366,146.038 315.7,148.204 317.5,151C 315.125,155.04 311.792,158.04 307.5,160C 295.401,164.408 283.401,164.408 271.5,160C 285.274,160.146 297.607,156.146 308.5,148C 309.305,146.887 309.972,145.721 310.5,144.5 Z"/></g>
<g><path style="opacity:1" fill="#f0f1f0" d="M 54.5,232.5 C 56.8568,232.337 59.1902,232.503 61.5,233C 55.0959,236.735 49.2626,241.235 44,246.5C 41.4961,251.646 42.3294,256.146 46.5,260C 58.8767,267.796 72.21,273.463 86.5,277C 135.002,288.258 184.169,293.758 234,293.5C 279.585,293.715 324.752,289.549 369.5,281C 385.973,277.735 401.306,271.735 415.5,263C 427.195,254.354 427.195,246.021 415.5,238C 412.167,236.667 408.833,235.333 405.5,234C 421.16,234.22 434.327,240.053 445,251.5C 445.97,253.274 446.804,255.107 447.5,257C 445.27,261.236 442.27,264.903 438.5,268C 425.542,276.323 411.542,282.323 396.5,286C 355.391,295.68 313.724,301.347 271.5,303C 208.96,307.182 146.96,303.182 85.5,291C 67.1727,287.335 49.506,281.668 32.5,274C 26.8477,271.25 22.0144,267.417 18,262.5C 14.7682,257.468 14.7682,252.468 18,247.5C 20.592,244.238 23.7587,241.738 27.5,240C 36.3228,236.381 45.3228,233.881 54.5,232.5 Z"/></g>
<g><path style="opacity:0.008" fill="#fefffe" d="M 473.5,269.5 C 473.5,270.167 473.5,270.833 473.5,271.5C 471.265,270.714 470.265,269.048 470.5,266.5C 470.667,265.5 470.833,264.5 471,263.5C 471.566,265.723 472.4,267.723 473.5,269.5 Z"/></g>
</svg>
